# xmcd
#
# Track frame offsets:
#	150
#	19759
#	34843
#	58168
#	69826
#	79850
#	101522
#	131155
#	155298
#	182537
#	200967
#	224673
#	235808
#	251829
#	273748
#	288458
#	302783
#	320404
#
# Disc length: 4703 seconds
#
# Revision: 0
# Processed by: cddbd v1.5.2PL0 Copyright (c) Steve Scherf et al.
# Submitted via: EZCDAudioConverter 7.0.6.1
#
DISCID=13125d12
DTITLE=I'm A Freak 2 Baby 1/3
DYEAR=1900
DGENRE=
TTITLE0=Budgie - Guts
TTITLE1=Jeff Beck - Shapes Of Things
TTITLE2=Wicked Lady - Run The Night
TTITLE3=Stray - The Man Who Paints The Pictures
TTITLE4=Slowload - Rosie
TTITLE5=The Move - Turkish Tram Conductor Blues
TTITLE6=Orang-Utan - Chocolate Piano
TTITLE7=Iron Claw - Clawstrophobia
TTITLE8=Bodkin - Plastic Man
TTITLE9=Andromeda - Let's All Watch The Sky Fall Down
TTITLE10=Ancient Grease - Mother Grease The Cat
TTITLE11=Stack Waddy - Rosalyn
TTITLE12=Sam Gopal - Horse
TTITLE13=Love Sculpture - Sabre Dance
TTITLE14=Monument - Dog Man
TTITLE15=Leaf Hound - Freelance Fiend
TTITLE16=Patto - Loud Green Song
TTITLE17=Sam Apple Pie - Winter Of My Love
EXTD=
EXTT0=
EXTT1=
EXTT2=
EXTT3=
EXTT4=
EXTT5=
EXTT6=
EXTT7=
EXTT8=
EXTT9=
EXTT10=
EXTT11=
EXTT12=
EXTT13=
EXTT14=
EXTT15=
EXTT16=
EXTT17=
PLAYORDER=
